<svg width="20" height="13" xmlns="http://www.w3.org/2000/svg"><g fill="#000" fill-rule="evenodd" opacity=".3"><path d="M10 12.97c-2.229 0-4.62-1.052-6.921-3.063A19.227 19.227 0 0 1 .263 6.884a.527.527 0 0 1 0-.607A19.251 19.251 0 0 1 3.08 3.25C5.379 1.245 7.77.187 10 .187s4.62 1.053 6.921 3.063a19.227 19.227 0 0 1 2.816 3.024.527.527 0 0 1 0 .607 19.251 19.251 0 0 1-2.816 3.026c-2.3 2.006-4.692 3.064-6.921 3.064zM1.363 6.58c.924 1.174 4.492 5.34 8.637 5.34 4.145 0 7.716-4.164 8.637-5.34-.924-1.174-4.492-5.34-8.637-5.34-4.145 0-7.716 4.164-8.637 5.34z"/><path d="M10 10.39a3.81 3.81 0 1 1 3.713-3.811A3.766 3.766 0 0 1 10 10.389zm0-6.58a2.758 2.758 0 1 0 2.66 2.769A2.713 2.713 0 0 0 10 3.82v-.01z"/></g></svg>