<svg width="76" height="19" xmlns="http://www.w3.org/2000/svg"><g fill="none" fill-rule="evenodd"><path d="M28.634 4.957H24.53c-.28 0-.52.207-.563.488l-1.66 10.676c-.032.21.128.4.339.4h1.959c.28 0 .519-.206.563-.488l.447-2.88a.572.572 0 0 1 .563-.489h1.299c2.702 0 4.262-1.327 4.669-3.957.184-1.15.008-2.054-.523-2.688-.583-.695-1.617-1.062-2.99-1.062zm.473 3.899c-.224 1.494-1.35 1.494-2.437 1.494h-.619l.434-2.79a.343.343 0 0 1 .338-.293h.284c.74 0 1.44 0 1.8.428.216.256.282.636.2 1.16zM40.953 8.452h-2.021a.353.353 0 0 0-.348.3l-.09.57-.14-.207c-.438-.64-1.414-.854-2.388-.854-2.234 0-4.143 1.705-4.514 4.096-.193 1.193.081 2.333.753 3.129.616.731 1.498 1.036 2.546 1.036 1.8 0 2.799-1.166 2.799-1.166l-.09.566a.353.353 0 0 0 .346.41h1.821c.29 0 .534-.211.58-.5l1.093-6.97a.352.352 0 0 0-.347-.41zm-2.818 3.964c-.195 1.164-1.111 1.945-2.28 1.945-.588 0-1.057-.19-1.358-.549-.299-.357-.412-.865-.317-1.431.182-1.154 1.114-1.96 2.265-1.96.574 0 1.041.192 1.348.555.308.366.43.877.342 1.44z" fill="#253B80" fill-rule="nonzero"/><path d="M51.716 8.26h-1.89c-.18 0-.349.099-.451.263l-2.606 4.198-1.104-4.034a.556.556 0 0 0-.524-.426h-1.856c-.226 0-.383.241-.31.473l2.08 6.68-1.956 3.02c-.154.239 0 .566.267.566h1.887c.179 0 .346-.095.448-.256l6.283-9.921c.15-.238-.004-.562-.268-.562z" fill="#253B80"/><path d="M58.373 4.957H54.27a.572.572 0 0 0-.563.488l-1.66 10.676c-.032.21.129.4.338.4h2.106a.4.4 0 0 0 .393-.341l.471-3.027a.572.572 0 0 1 .563-.489h1.298c2.703 0 4.262-1.327 4.67-3.957.184-1.15.007-2.054-.524-2.688-.582-.695-1.616-1.062-2.989-1.062zm.473 3.899c-.223 1.494-1.348 1.494-2.436 1.494h-.619l.435-2.79a.342.342 0 0 1 .337-.293h.284c.74 0 1.44 0 1.8.428.216.256.282.636.2 1.16zM70.69 8.452h-2.02a.35.35 0 0 0-.347.3l-.09.57-.142-.207c-.437-.64-1.413-.854-2.387-.854-2.234 0-4.142 1.705-4.513 4.096-.193 1.193.08 2.333.752 3.129.618.731 1.498 1.036 2.547 1.036 1.8 0 2.798-1.166 2.798-1.166l-.09.566a.354.354 0 0 0 .348.41h1.82a.588.588 0 0 0 .58-.5l1.093-6.97a.354.354 0 0 0-.349-.41zm-2.818 3.964c-.194 1.164-1.112 1.945-2.28 1.945-.587 0-1.057-.19-1.358-.549-.3-.357-.412-.865-.318-1.431.184-1.154 1.115-1.96 2.266-1.96.574 0 1.04.192 1.348.555.31.366.432.877.342 1.44z" fill="#179BD7" fill-rule="nonzero"/><path d="M73.007 5.25L71.048 16.12c-.038.21.15.4.393.4h1.968c.327 0 .605-.206.655-.488l1.931-10.675c.038-.21-.149-.401-.392-.401h-2.204c-.195 0-.362.124-.392.293z" fill="#179BD7"/><path d="M3.928 18.174l.331-2.049-.737-.016H0L2.447.99a.199.199 0 0 1 .199-.165h5.938c1.971 0 3.331.4 4.042 1.188.333.37.545.757.647 1.183.108.446.11.98.005 1.63l-.008.048v.417l.333.183c.28.145.503.311.674.501.285.317.47.719.547 1.195.08.49.054 1.074-.078 1.734-.152.76-.397 1.422-.729 1.963a4.078 4.078 0 0 1-1.155 1.234c-.44.305-.964.536-1.556.684a7.955 7.955 0 0 1-1.945.219H8.9c-.33 0-.651.116-.903.323-.253.213-.42.502-.471.82l-.035.184-.585 3.61-.027.133c-.007.042-.019.063-.036.077a.1.1 0 0 1-.061.022H3.928z" fill="#253B80"/><path d="M14.08 4.957a8.922 8.922 0 0 1-.062.322c-.79 3.73-3.495 5.018-6.95 5.018H5.31c-.423 0-.779.282-.845.665l-.9 5.247-.255 1.487c-.043.251.168.478.444.478h3.12c.369 0 .683-.247.741-.581l.03-.146.588-3.424.038-.188c.057-.336.372-.583.741-.583h.467c3.022 0 5.388-1.127 6.08-4.39.289-1.362.139-2.5-.625-3.3a2.965 2.965 0 0 0-.854-.605z" fill="#179BD7"/><path d="M13.262 3.6a5.462 5.462 0 0 0-.727-.178 8.409 8.409 0 0 0-1.465-.118H6.629a.652.652 0 0 0-.307.077.775.775 0 0 0-.394.583l-.944 6.583-.027.192c.062-.433.398-.752.797-.752h1.663c3.265 0 5.821-1.459 6.568-5.68a10.3 10.3 0 0 0 .058-.365 3.796 3.796 0 0 0-.781-.343z" fill="#222D65"/><path d="M5.824 4.741a.719.719 0 0 1 .702-.61h4.453c.528 0 1.02.035 1.47.109a5.832 5.832 0 0 1 .897.217c.22.075.426.163.616.264.223-1.445-.002-2.429-.77-3.32C12.343.42 10.813 0 8.856 0H3.175c-.4 0-.74.296-.802.698L.006 15.948a.494.494 0 0 0 .482.574h3.507l.881-5.681.948-6.1z" fill="#253B80"/></g></svg>